# xmcd
#
# Track frame offsets:
# 150
# 12552
# 26171
# 38773
# 51596
# 72182
# 83766
#
# Disc length: 1323 seconds
#
# Revision: 0
# Processed by: cddbd v1.5.1PL2 Copyright (c) Steve Scherf et al.
# Submitted via: Audion 3.0.2 (http://www.panic.com/audion/)
#
DISCID=5a052907
DTITLE=Contra - An Enormous Unstoppable Stabbing Machine
DYEAR=1900
DGENRE=
TTITLE0=She's Taken A Gentle Lover
TTITLE1=Lamar Bone
TTITLE2=Lion Heads and Clocks
TTITLE3=French Cognac
TTITLE4=Am I the Son of Fire?
TTITLE5=Broken Down Pool Tables
TTITLE6=Rally the Troops
EXTD=
EXTT0=
EXTT1=
EXTT2=
EXTT3=
EXTT4=
EXTT5=
EXTT6=
PLAYORDER=
